<?xml version="1.0" encoding="UTF-8"?>
<svg width="16" height="16" viewBox="0 0 16 16" xmlns="http://www.w3.org/2000/svg" aria-labelledby="title desc" role="img">
  <title id="title">Technical Debt</title>
  <desc id="desc">Stacked tasks with a warning badge, representing technical debt</desc>
  <g fill="none" stroke="currentColor" stroke-width="1.2" stroke-linecap="round" stroke-linejoin="round">
    <!-- Money bag icon with dollar symbol -->
    <!-- Top tuft of the bag -->
    <path d="M6 5 L8 3.2 L10 5"/>
    <!-- Neck band -->
    <path d="M5.4 6.2 H10.6"/>
    <!-- Bag body outline -->
    <path d="M4 10 C4 7.8 5.6 6.8 8 6.8 C10.4 6.8 12 7.8 12 10 C12 12.2 10.2 13.8 8 13.8 C5.8 13.8 4 12.2 4 10 Z"/>
    <!-- Dollar symbol -->
    <path d="M9.1 9.0 C8.8 8.6 7.6 8.7 7.6 9.2 C7.6 9.6 8.0 9.8 8.4 9.9 C8.9 10.1 9.2 10.2 9.2 10.6 C9.2 11.2 8.0 11.3 7.5 11.0"/>
    <line x1="8.4" y1="8.4" x2="8.4" y2="11.6"/>
  </g>
</svg>
